<svg xmlns="http://www.w3.org/2000/svg" width="720" height="650" viewBox="0 0 720 650">
<rect width="720" height="650" fill="#EAF6F0"/>
<text x="360" y="46" text-anchor="middle" font-family="Verdana,sans-serif" font-size="22" font-weight="bold" fill="#1F3B36">Corgdoku — the pack</text>
<rect x="26" y="66" width="158" height="176" rx="16" fill="#fff"/>
<svg x="54" y="78" width="90" height="90" viewBox="0 0 100 100"><clipPath id="cs-classic"><path d="M13,12 Q11,34 22,48 Q18,72 32,84 Q50,95 68,84 Q82,72 78,48 Q89,34 87,12 Q72,18 66,38 Q50,44 34,38 Q28,18 13,12 Z"/></clipPath><path d="M13,12 Q11,34 22,48 Q18,72 32,84 Q50,95 68,84 Q82,72 78,48 Q89,34 87,12 Q72,18 66,38 Q50,44 34,38 Q28,18 13,12 Z" fill="#E8A14A"/><g clip-path="url(#cs-classic)"><path d="M50,33 Q44,49 41,61 Q30,63 27,76 Q34,91 50,93 Q66,91 73,76 Q70,63 59,61 Q56,49 50,33 Z" fill="#FBF1E0"/><path d="M18,19 Q18,35 24,46 Q31,34 30,23 Z" fill="#F2D9B8"/><path d="M82,19 Q82,35 76,46 Q69,34 70,23 Z" fill="#F2D9B8"/><ellipse cx="27" cy="66" rx="7" ry="4.5" fill="#F0879E" opacity=".4"/><ellipse cx="73" cy="66" rx="7" ry="4.5" fill="#F0879E" opacity=".4"/></g><ellipse cx="36" cy="56" rx="4.6" ry="5.6" fill="#2A1A0C"/><ellipse cx="64" cy="56" rx="4.6" ry="5.6" fill="#2A1A0C"/><circle cx="37.6" cy="53.8" r="1.5" fill="#fff"/><circle cx="65.6" cy="53.8" r="1.5" fill="#fff"/><path d="M43,68 Q50,63 57,68 Q57,75 50,78 Q43,75 43,68 Z" fill="#2A1A0C"/><path d="M50,78 Q45,84 39,80" stroke="#2A1A0C" stroke-width="3.4" fill="none" stroke-linecap="round"/><path d="M50,78 Q55,84 61,80" stroke="#2A1A0C" stroke-width="3.4" fill="none" stroke-linecap="round"/><path d="M13,12 Q11,34 22,48 Q18,72 32,84 Q50,95 68,84 Q82,72 78,48 Q89,34 87,12 Q72,18 66,38 Q50,44 34,38 Q28,18 13,12 Z" fill="none" stroke="#3B2412" stroke-width="5" stroke-linejoin="round" stroke-linecap="round"/></svg>
<rect x="78" y="174" width="28" height="28" rx="4" fill="#A58EEB" stroke="#12332C" stroke-width="2"/>
<circle cx="92" cy="188" r="9" fill="rgba(255,255,255,.92)"/>
<svg x="84" y="180" width="16" height="16" viewBox="0 0 100 100"><clipPath id="cs-classic-sm"><path d="M13,12 Q11,34 22,48 Q18,72 32,84 Q50,95 68,84 Q82,72 78,48 Q89,34 87,12 Q72,18 66,38 Q50,44 34,38 Q28,18 13,12 Z"/></clipPath><path d="M13,12 Q11,34 22,48 Q18,72 32,84 Q50,95 68,84 Q82,72 78,48 Q89,34 87,12 Q72,18 66,38 Q50,44 34,38 Q28,18 13,12 Z" fill="#E8A14A"/><g clip-path="url(#cs-classic-sm)"><path d="M50,33 Q44,49 41,61 Q30,63 27,76 Q34,91 50,93 Q66,91 73,76 Q70,63 59,61 Q56,49 50,33 Z" fill="#FBF1E0"/><path d="M18,19 Q18,35 24,46 Q31,34 30,23 Z" fill="#F2D9B8"/><path d="M82,19 Q82,35 76,46 Q69,34 70,23 Z" fill="#F2D9B8"/><ellipse cx="27" cy="66" rx="7" ry="4.5" fill="#F0879E" opacity=".4"/><ellipse cx="73" cy="66" rx="7" ry="4.5" fill="#F0879E" opacity=".4"/></g><ellipse cx="36" cy="56" rx="4.6" ry="5.6" fill="#2A1A0C"/><ellipse cx="64" cy="56" rx="4.6" ry="5.6" fill="#2A1A0C"/><circle cx="37.6" cy="53.8" r="1.5" fill="#fff"/><circle cx="65.6" cy="53.8" r="1.5" fill="#fff"/><path d="M43,68 Q50,63 57,68 Q57,75 50,78 Q43,75 43,68 Z" fill="#2A1A0C"/><path d="M50,78 Q45,84 39,80" stroke="#2A1A0C" stroke-width="3.4" fill="none" stroke-linecap="round"/><path d="M50,78 Q55,84 61,80" stroke="#2A1A0C" stroke-width="3.4" fill="none" stroke-linecap="round"/><path d="M13,12 Q11,34 22,48 Q18,72 32,84 Q50,95 68,84 Q82,72 78,48 Q89,34 87,12 Q72,18 66,38 Q50,44 34,38 Q28,18 13,12 Z" fill="none" stroke="#3B2412" stroke-width="5" stroke-linejoin="round" stroke-linecap="round"/></svg>
<text x="105" y="220" text-anchor="middle" font-family="Verdana,sans-serif" font-size="13" font-weight="bold" fill="#1F3B36">Classic</text>
<text x="105" y="235" text-anchor="middle" font-family="Verdana,sans-serif" font-size="11" fill="#5E7B75">unlocked</text>
<rect x="196" y="66" width="158" height="176" rx="16" fill="#fff"/>
<svg x="224" y="78" width="90" height="90" viewBox="0 0 100 100"><clipPath id="cs-happy"><path d="M13,12 Q11,34 22,48 Q18,72 32,84 Q50,95 68,84 Q82,72 78,48 Q89,34 87,12 Q72,18 66,38 Q50,44 34,38 Q28,18 13,12 Z"/></clipPath><path d="M13,12 Q11,34 22,48 Q18,72 32,84 Q50,95 68,84 Q82,72 78,48 Q89,34 87,12 Q72,18 66,38 Q50,44 34,38 Q28,18 13,12 Z" fill="#E8A14A"/><g clip-path="url(#cs-happy)"><path d="M50,33 Q44,49 41,61 Q30,63 27,76 Q34,91 50,93 Q66,91 73,76 Q70,63 59,61 Q56,49 50,33 Z" fill="#FBF1E0"/><path d="M18,19 Q18,35 24,46 Q31,34 30,23 Z" fill="#F2D9B8"/><path d="M82,19 Q82,35 76,46 Q69,34 70,23 Z" fill="#F2D9B8"/><ellipse cx="27" cy="66" rx="7" ry="4.5" fill="#F0879E" opacity=".4"/><ellipse cx="73" cy="66" rx="7" ry="4.5" fill="#F0879E" opacity=".4"/></g><ellipse cx="36" cy="56" rx="4.6" ry="5.6" fill="#2A1A0C"/><ellipse cx="64" cy="56" rx="4.6" ry="5.6" fill="#2A1A0C"/><circle cx="37.6" cy="53.8" r="1.5" fill="#fff"/><circle cx="65.6" cy="53.8" r="1.5" fill="#fff"/><path d="M43,68 Q50,63 57,68 Q57,75 50,78 Q43,75 43,68 Z" fill="#2A1A0C"/><path d="M46,80 Q46,92 53,90 Q57,87 55,79 Z" fill="#F0879E"/><path d="M50,78 Q45,84 39,80" stroke="#2A1A0C" stroke-width="3.4" fill="none" stroke-linecap="round"/><path d="M50,78 Q55,84 61,80" stroke="#2A1A0C" stroke-width="3.4" fill="none" stroke-linecap="round"/><path d="M13,12 Q11,34 22,48 Q18,72 32,84 Q50,95 68,84 Q82,72 78,48 Q89,34 87,12 Q72,18 66,38 Q50,44 34,38 Q28,18 13,12 Z" fill="none" stroke="#3B2412" stroke-width="5" stroke-linejoin="round" stroke-linecap="round"/></svg>
<rect x="248" y="174" width="28" height="28" rx="4" fill="#A58EEB" stroke="#12332C" stroke-width="2"/>
<circle cx="262" cy="188" r="9" fill="rgba(255,255,255,.92)"/>
<svg x="254" y="180" width="16" height="16" viewBox="0 0 100 100"><clipPath id="cs-happy-sm"><path d="M13,12 Q11,34 22,48 Q18,72 32,84 Q50,95 68,84 Q82,72 78,48 Q89,34 87,12 Q72,18 66,38 Q50,44 34,38 Q28,18 13,12 Z"/></clipPath><path d="M13,12 Q11,34 22,48 Q18,72 32,84 Q50,95 68,84 Q82,72 78,48 Q89,34 87,12 Q72,18 66,38 Q50,44 34,38 Q28,18 13,12 Z" fill="#E8A14A"/><g clip-path="url(#cs-happy-sm)"><path d="M50,33 Q44,49 41,61 Q30,63 27,76 Q34,91 50,93 Q66,91 73,76 Q70,63 59,61 Q56,49 50,33 Z" fill="#FBF1E0"/><path d="M18,19 Q18,35 24,46 Q31,34 30,23 Z" fill="#F2D9B8"/><path d="M82,19 Q82,35 76,46 Q69,34 70,23 Z" fill="#F2D9B8"/><ellipse cx="27" cy="66" rx="7" ry="4.5" fill="#F0879E" opacity=".4"/><ellipse cx="73" cy="66" rx="7" ry="4.5" fill="#F0879E" opacity=".4"/></g><ellipse cx="36" cy="56" rx="4.6" ry="5.6" fill="#2A1A0C"/><ellipse cx="64" cy="56" rx="4.6" ry="5.6" fill="#2A1A0C"/><circle cx="37.6" cy="53.8" r="1.5" fill="#fff"/><circle cx="65.6" cy="53.8" r="1.5" fill="#fff"/><path d="M43,68 Q50,63 57,68 Q57,75 50,78 Q43,75 43,68 Z" fill="#2A1A0C"/><path d="M46,80 Q46,92 53,90 Q57,87 55,79 Z" fill="#F0879E"/><path d="M50,78 Q45,84 39,80" stroke="#2A1A0C" stroke-width="3.4" fill="none" stroke-linecap="round"/><path d="M50,78 Q55,84 61,80" stroke="#2A1A0C" stroke-width="3.4" fill="none" stroke-linecap="round"/><path d="M13,12 Q11,34 22,48 Q18,72 32,84 Q50,95 68,84 Q82,72 78,48 Q89,34 87,12 Q72,18 66,38 Q50,44 34,38 Q28,18 13,12 Z" fill="none" stroke="#3B2412" stroke-width="5" stroke-linejoin="round" stroke-linecap="round"/></svg>
<text x="275" y="220" text-anchor="middle" font-family="Verdana,sans-serif" font-size="13" font-weight="bold" fill="#1F3B36">Happy</text>
<text x="275" y="235" text-anchor="middle" font-family="Verdana,sans-serif" font-size="11" fill="#5E7B75">level 2</text>
<rect x="366" y="66" width="158" height="176" rx="16" fill="#fff"/>
<svg x="394" y="78" width="90" height="90" viewBox="0 0 100 100"><clipPath id="cs-wink"><path d="M13,12 Q11,34 22,48 Q18,72 32,84 Q50,95 68,84 Q82,72 78,48 Q89,34 87,12 Q72,18 66,38 Q50,44 34,38 Q28,18 13,12 Z"/></clipPath><path d="M13,12 Q11,34 22,48 Q18,72 32,84 Q50,95 68,84 Q82,72 78,48 Q89,34 87,12 Q72,18 66,38 Q50,44 34,38 Q28,18 13,12 Z" fill="#E8A14A"/><g clip-path="url(#cs-wink)"><path d="M50,33 Q44,49 41,61 Q30,63 27,76 Q34,91 50,93 Q66,91 73,76 Q70,63 59,61 Q56,49 50,33 Z" fill="#FBF1E0"/><path d="M18,19 Q18,35 24,46 Q31,34 30,23 Z" fill="#F2D9B8"/><path d="M82,19 Q82,35 76,46 Q69,34 70,23 Z" fill="#F2D9B8"/><ellipse cx="27" cy="66" rx="7" ry="4.5" fill="#F0879E" opacity=".4"/><ellipse cx="73" cy="66" rx="7" ry="4.5" fill="#F0879E" opacity=".4"/></g><ellipse cx="36" cy="56" rx="4.6" ry="5.6" fill="#2A1A0C"/><circle cx="37.6" cy="53.8" r="1.5" fill="#fff"/><path d="M58,58 Q64,51 70,58" stroke="#2A1A0C" stroke-width="4" fill="none" stroke-linecap="round"/><path d="M43,68 Q50,63 57,68 Q57,75 50,78 Q43,75 43,68 Z" fill="#2A1A0C"/><path d="M46,80 Q46,92 53,90 Q57,87 55,79 Z" fill="#F0879E"/><path d="M50,78 Q45,84 39,80" stroke="#2A1A0C" stroke-width="3.4" fill="none" stroke-linecap="round"/><path d="M50,78 Q55,84 61,80" stroke="#2A1A0C" stroke-width="3.4" fill="none" stroke-linecap="round"/><path d="M13,12 Q11,34 22,48 Q18,72 32,84 Q50,95 68,84 Q82,72 78,48 Q89,34 87,12 Q72,18 66,38 Q50,44 34,38 Q28,18 13,12 Z" fill="none" stroke="#3B2412" stroke-width="5" stroke-linejoin="round" stroke-linecap="round"/></svg>
<rect x="418" y="174" width="28" height="28" rx="4" fill="#A58EEB" stroke="#12332C" stroke-width="2"/>
<circle cx="432" cy="188" r="9" fill="rgba(255,255,255,.92)"/>
<svg x="424" y="180" width="16" height="16" viewBox="0 0 100 100"><clipPath id="cs-wink-sm"><path d="M13,12 Q11,34 22,48 Q18,72 32,84 Q50,95 68,84 Q82,72 78,48 Q89,34 87,12 Q72,18 66,38 Q50,44 34,38 Q28,18 13,12 Z"/></clipPath><path d="M13,12 Q11,34 22,48 Q18,72 32,84 Q50,95 68,84 Q82,72 78,48 Q89,34 87,12 Q72,18 66,38 Q50,44 34,38 Q28,18 13,12 Z" fill="#E8A14A"/><g clip-path="url(#cs-wink-sm)"><path d="M50,33 Q44,49 41,61 Q30,63 27,76 Q34,91 50,93 Q66,91 73,76 Q70,63 59,61 Q56,49 50,33 Z" fill="#FBF1E0"/><path d="M18,19 Q18,35 24,46 Q31,34 30,23 Z" fill="#F2D9B8"/><path d="M82,19 Q82,35 76,46 Q69,34 70,23 Z" fill="#F2D9B8"/><ellipse cx="27" cy="66" rx="7" ry="4.5" fill="#F0879E" opacity=".4"/><ellipse cx="73" cy="66" rx="7" ry="4.5" fill="#F0879E" opacity=".4"/></g><ellipse cx="36" cy="56" rx="4.6" ry="5.6" fill="#2A1A0C"/><circle cx="37.6" cy="53.8" r="1.5" fill="#fff"/><path d="M58,58 Q64,51 70,58" stroke="#2A1A0C" stroke-width="4" fill="none" stroke-linecap="round"/><path d="M43,68 Q50,63 57,68 Q57,75 50,78 Q43,75 43,68 Z" fill="#2A1A0C"/><path d="M46,80 Q46,92 53,90 Q57,87 55,79 Z" fill="#F0879E"/><path d="M50,78 Q45,84 39,80" stroke="#2A1A0C" stroke-width="3.4" fill="none" stroke-linecap="round"/><path d="M50,78 Q55,84 61,80" stroke="#2A1A0C" stroke-width="3.4" fill="none" stroke-linecap="round"/><path d="M13,12 Q11,34 22,48 Q18,72 32,84 Q50,95 68,84 Q82,72 78,48 Q89,34 87,12 Q72,18 66,38 Q50,44 34,38 Q28,18 13,12 Z" fill="none" stroke="#3B2412" stroke-width="5" stroke-linejoin="round" stroke-linecap="round"/></svg>
<text x="445" y="220" text-anchor="middle" font-family="Verdana,sans-serif" font-size="13" font-weight="bold" fill="#1F3B36">Winker</text>
<text x="445" y="235" text-anchor="middle" font-family="Verdana,sans-serif" font-size="11" fill="#5E7B75">level 4</text>
<rect x="536" y="66" width="158" height="176" rx="16" fill="#fff"/>
<svg x="564" y="78" width="90" height="90" viewBox="0 0 100 100"><clipPath id="cs-sleepy"><path d="M13,12 Q11,34 22,48 Q18,72 32,84 Q50,95 68,84 Q82,72 78,48 Q89,34 87,12 Q72,18 66,38 Q50,44 34,38 Q28,18 13,12 Z"/></clipPath><path d="M13,12 Q11,34 22,48 Q18,72 32,84 Q50,95 68,84 Q82,72 78,48 Q89,34 87,12 Q72,18 66,38 Q50,44 34,38 Q28,18 13,12 Z" fill="#DE9A55"/><g clip-path="url(#cs-sleepy)"><path d="M50,33 Q44,49 41,61 Q30,63 27,76 Q34,91 50,93 Q66,91 73,76 Q70,63 59,61 Q56,49 50,33 Z" fill="#FBF1E0"/><path d="M18,19 Q18,35 24,46 Q31,34 30,23 Z" fill="#F2D9B8"/><path d="M82,19 Q82,35 76,46 Q69,34 70,23 Z" fill="#F2D9B8"/><ellipse cx="27" cy="66" rx="7" ry="4.5" fill="#F0879E" opacity=".4"/><ellipse cx="73" cy="66" rx="7" ry="4.5" fill="#F0879E" opacity=".4"/></g><path d="M30,56 Q36,62 42,56" stroke="#2A1A0C" stroke-width="4" fill="none" stroke-linecap="round"/><path d="M58,56 Q64,62 70,56" stroke="#2A1A0C" stroke-width="4" fill="none" stroke-linecap="round"/><path d="M43,68 Q50,63 57,68 Q57,75 50,78 Q43,75 43,68 Z" fill="#2A1A0C"/><path d="M50,78 Q45,84 39,80" stroke="#2A1A0C" stroke-width="3.4" fill="none" stroke-linecap="round"/><path d="M50,78 Q55,84 61,80" stroke="#2A1A0C" stroke-width="3.4" fill="none" stroke-linecap="round"/><path d="M13,12 Q11,34 22,48 Q18,72 32,84 Q50,95 68,84 Q82,72 78,48 Q89,34 87,12 Q72,18 66,38 Q50,44 34,38 Q28,18 13,12 Z" fill="none" stroke="#3B2412" stroke-width="5" stroke-linejoin="round" stroke-linecap="round"/></svg>
<rect x="588" y="174" width="28" height="28" rx="4" fill="#A58EEB" stroke="#12332C" stroke-width="2"/>
<circle cx="602" cy="188" r="9" fill="rgba(255,255,255,.92)"/>
<svg x="594" y="180" width="16" height="16" viewBox="0 0 100 100"><clipPath id="cs-sleepy-sm"><path d="M13,12 Q11,34 22,48 Q18,72 32,84 Q50,95 68,84 Q82,72 78,48 Q89,34 87,12 Q72,18 66,38 Q50,44 34,38 Q28,18 13,12 Z"/></clipPath><path d="M13,12 Q11,34 22,48 Q18,72 32,84 Q50,95 68,84 Q82,72 78,48 Q89,34 87,12 Q72,18 66,38 Q50,44 34,38 Q28,18 13,12 Z" fill="#DE9A55"/><g clip-path="url(#cs-sleepy-sm)"><path d="M50,33 Q44,49 41,61 Q30,63 27,76 Q34,91 50,93 Q66,91 73,76 Q70,63 59,61 Q56,49 50,33 Z" fill="#FBF1E0"/><path d="M18,19 Q18,35 24,46 Q31,34 30,23 Z" fill="#F2D9B8"/><path d="M82,19 Q82,35 76,46 Q69,34 70,23 Z" fill="#F2D9B8"/><ellipse cx="27" cy="66" rx="7" ry="4.5" fill="#F0879E" opacity=".4"/><ellipse cx="73" cy="66" rx="7" ry="4.5" fill="#F0879E" opacity=".4"/></g><path d="M30,56 Q36,62 42,56" stroke="#2A1A0C" stroke-width="4" fill="none" stroke-linecap="round"/><path d="M58,56 Q64,62 70,56" stroke="#2A1A0C" stroke-width="4" fill="none" stroke-linecap="round"/><path d="M43,68 Q50,63 57,68 Q57,75 50,78 Q43,75 43,68 Z" fill="#2A1A0C"/><path d="M50,78 Q45,84 39,80" stroke="#2A1A0C" stroke-width="3.4" fill="none" stroke-linecap="round"/><path d="M50,78 Q55,84 61,80" stroke="#2A1A0C" stroke-width="3.4" fill="none" stroke-linecap="round"/><path d="M13,12 Q11,34 22,48 Q18,72 32,84 Q50,95 68,84 Q82,72 78,48 Q89,34 87,12 Q72,18 66,38 Q50,44 34,38 Q28,18 13,12 Z" fill="none" stroke="#3B2412" stroke-width="5" stroke-linejoin="round" stroke-linecap="round"/></svg>
<text x="615" y="220" text-anchor="middle" font-family="Verdana,sans-serif" font-size="13" font-weight="bold" fill="#1F3B36">Sleepy</text>
<text x="615" y="235" text-anchor="middle" font-family="Verdana,sans-serif" font-size="11" fill="#5E7B75">level 7</text>
<rect x="26" y="256" width="158" height="176" rx="16" fill="#fff"/>
<svg x="54" y="268" width="90" height="90" viewBox="0 0 100 100"><clipPath id="cs-blep"><path d="M13,12 Q11,34 22,48 Q18,72 32,84 Q50,95 68,84 Q82,72 78,48 Q89,34 87,12 Q72,18 66,38 Q50,44 34,38 Q28,18 13,12 Z"/></clipPath><path d="M13,12 Q11,34 22,48 Q18,72 32,84 Q50,95 68,84 Q82,72 78,48 Q89,34 87,12 Q72,18 66,38 Q50,44 34,38 Q28,18 13,12 Z" fill="#E8A14A"/><g clip-path="url(#cs-blep)"><path d="M50,33 Q44,49 41,61 Q30,63 27,76 Q34,91 50,93 Q66,91 73,76 Q70,63 59,61 Q56,49 50,33 Z" fill="#FBF1E0"/><path d="M18,19 Q18,35 24,46 Q31,34 30,23 Z" fill="#F2D9B8"/><path d="M82,19 Q82,35 76,46 Q69,34 70,23 Z" fill="#F2D9B8"/><ellipse cx="27" cy="66" rx="7" ry="4.5" fill="#F0879E" opacity=".4"/><ellipse cx="73" cy="66" rx="7" ry="4.5" fill="#F0879E" opacity=".4"/></g><path d="M30,58 Q36,51 42,58" stroke="#2A1A0C" stroke-width="4" fill="none" stroke-linecap="round"/><path d="M58,58 Q64,51 70,58" stroke="#2A1A0C" stroke-width="4" fill="none" stroke-linecap="round"/><path d="M43,68 Q50,63 57,68 Q57,75 50,78 Q43,75 43,68 Z" fill="#2A1A0C"/><path d="M46,80 Q46,92 53,90 Q57,87 55,79 Z" fill="#F0879E"/><path d="M50,78 Q45,84 39,80" stroke="#2A1A0C" stroke-width="3.4" fill="none" stroke-linecap="round"/><path d="M50,78 Q55,84 61,80" stroke="#2A1A0C" stroke-width="3.4" fill="none" stroke-linecap="round"/><path d="M13,12 Q11,34 22,48 Q18,72 32,84 Q50,95 68,84 Q82,72 78,48 Q89,34 87,12 Q72,18 66,38 Q50,44 34,38 Q28,18 13,12 Z" fill="none" stroke="#3B2412" stroke-width="5" stroke-linejoin="round" stroke-linecap="round"/></svg>
<rect x="78" y="364" width="28" height="28" rx="4" fill="#A58EEB" stroke="#12332C" stroke-width="2"/>
<circle cx="92" cy="378" r="9" fill="rgba(255,255,255,.92)"/>
<svg x="84" y="370" width="16" height="16" viewBox="0 0 100 100"><clipPath id="cs-blep-sm"><path d="M13,12 Q11,34 22,48 Q18,72 32,84 Q50,95 68,84 Q82,72 78,48 Q89,34 87,12 Q72,18 66,38 Q50,44 34,38 Q28,18 13,12 Z"/></clipPath><path d="M13,12 Q11,34 22,48 Q18,72 32,84 Q50,95 68,84 Q82,72 78,48 Q89,34 87,12 Q72,18 66,38 Q50,44 34,38 Q28,18 13,12 Z" fill="#E8A14A"/><g clip-path="url(#cs-blep-sm)"><path d="M50,33 Q44,49 41,61 Q30,63 27,76 Q34,91 50,93 Q66,91 73,76 Q70,63 59,61 Q56,49 50,33 Z" fill="#FBF1E0"/><path d="M18,19 Q18,35 24,46 Q31,34 30,23 Z" fill="#F2D9B8"/><path d="M82,19 Q82,35 76,46 Q69,34 70,23 Z" fill="#F2D9B8"/><ellipse cx="27" cy="66" rx="7" ry="4.5" fill="#F0879E" opacity=".4"/><ellipse cx="73" cy="66" rx="7" ry="4.5" fill="#F0879E" opacity=".4"/></g><path d="M30,58 Q36,51 42,58" stroke="#2A1A0C" stroke-width="4" fill="none" stroke-linecap="round"/><path d="M58,58 Q64,51 70,58" stroke="#2A1A0C" stroke-width="4" fill="none" stroke-linecap="round"/><path d="M43,68 Q50,63 57,68 Q57,75 50,78 Q43,75 43,68 Z" fill="#2A1A0C"/><path d="M46,80 Q46,92 53,90 Q57,87 55,79 Z" fill="#F0879E"/><path d="M50,78 Q45,84 39,80" stroke="#2A1A0C" stroke-width="3.4" fill="none" stroke-linecap="round"/><path d="M50,78 Q55,84 61,80" stroke="#2A1A0C" stroke-width="3.4" fill="none" stroke-linecap="round"/><path d="M13,12 Q11,34 22,48 Q18,72 32,84 Q50,95 68,84 Q82,72 78,48 Q89,34 87,12 Q72,18 66,38 Q50,44 34,38 Q28,18 13,12 Z" fill="none" stroke="#3B2412" stroke-width="5" stroke-linejoin="round" stroke-linecap="round"/></svg>
<text x="105" y="410" text-anchor="middle" font-family="Verdana,sans-serif" font-size="13" font-weight="bold" fill="#1F3B36">Blep</text>
<text x="105" y="425" text-anchor="middle" font-family="Verdana,sans-serif" font-size="11" fill="#5E7B75">level 10</text>
<rect x="196" y="256" width="158" height="176" rx="16" fill="#fff"/>
<svg x="224" y="268" width="90" height="90" viewBox="0 0 100 100"><clipPath id="cs-cream"><path d="M13,12 Q11,34 22,48 Q18,72 32,84 Q50,95 68,84 Q82,72 78,48 Q89,34 87,12 Q72,18 66,38 Q50,44 34,38 Q28,18 13,12 Z"/></clipPath><path d="M13,12 Q11,34 22,48 Q18,72 32,84 Q50,95 68,84 Q82,72 78,48 Q89,34 87,12 Q72,18 66,38 Q50,44 34,38 Q28,18 13,12 Z" fill="#EFD3A0"/><g clip-path="url(#cs-cream)"><path d="M50,33 Q44,49 41,61 Q30,63 27,76 Q34,91 50,93 Q66,91 73,76 Q70,63 59,61 Q56,49 50,33 Z" fill="#FFF8EC"/><path d="M18,19 Q18,35 24,46 Q31,34 30,23 Z" fill="#E6BE93"/><path d="M82,19 Q82,35 76,46 Q69,34 70,23 Z" fill="#E6BE93"/><ellipse cx="27" cy="66" rx="7" ry="4.5" fill="#F0879E" opacity=".4"/><ellipse cx="73" cy="66" rx="7" ry="4.5" fill="#F0879E" opacity=".4"/></g><ellipse cx="36" cy="56" rx="4.6" ry="5.6" fill="#2A1A0C"/><ellipse cx="64" cy="56" rx="4.6" ry="5.6" fill="#2A1A0C"/><circle cx="37.6" cy="53.8" r="1.5" fill="#fff"/><circle cx="65.6" cy="53.8" r="1.5" fill="#fff"/><path d="M43,68 Q50,63 57,68 Q57,75 50,78 Q43,75 43,68 Z" fill="#2A1A0C"/><path d="M50,78 Q45,84 39,80" stroke="#2A1A0C" stroke-width="3.4" fill="none" stroke-linecap="round"/><path d="M50,78 Q55,84 61,80" stroke="#2A1A0C" stroke-width="3.4" fill="none" stroke-linecap="round"/><path d="M13,12 Q11,34 22,48 Q18,72 32,84 Q50,95 68,84 Q82,72 78,48 Q89,34 87,12 Q72,18 66,38 Q50,44 34,38 Q28,18 13,12 Z" fill="none" stroke="#3B2412" stroke-width="5" stroke-linejoin="round" stroke-linecap="round"/></svg>
<rect x="248" y="364" width="28" height="28" rx="4" fill="#A58EEB" stroke="#12332C" stroke-width="2"/>
<circle cx="262" cy="378" r="9" fill="rgba(255,255,255,.92)"/>
<svg x="254" y="370" width="16" height="16" viewBox="0 0 100 100"><clipPath id="cs-cream-sm"><path d="M13,12 Q11,34 22,48 Q18,72 32,84 Q50,95 68,84 Q82,72 78,48 Q89,34 87,12 Q72,18 66,38 Q50,44 34,38 Q28,18 13,12 Z"/></clipPath><path d="M13,12 Q11,34 22,48 Q18,72 32,84 Q50,95 68,84 Q82,72 78,48 Q89,34 87,12 Q72,18 66,38 Q50,44 34,38 Q28,18 13,12 Z" fill="#EFD3A0"/><g clip-path="url(#cs-cream-sm)"><path d="M50,33 Q44,49 41,61 Q30,63 27,76 Q34,91 50,93 Q66,91 73,76 Q70,63 59,61 Q56,49 50,33 Z" fill="#FFF8EC"/><path d="M18,19 Q18,35 24,46 Q31,34 30,23 Z" fill="#E6BE93"/><path d="M82,19 Q82,35 76,46 Q69,34 70,23 Z" fill="#E6BE93"/><ellipse cx="27" cy="66" rx="7" ry="4.5" fill="#F0879E" opacity=".4"/><ellipse cx="73" cy="66" rx="7" ry="4.5" fill="#F0879E" opacity=".4"/></g><ellipse cx="36" cy="56" rx="4.6" ry="5.6" fill="#2A1A0C"/><ellipse cx="64" cy="56" rx="4.6" ry="5.6" fill="#2A1A0C"/><circle cx="37.6" cy="53.8" r="1.5" fill="#fff"/><circle cx="65.6" cy="53.8" r="1.5" fill="#fff"/><path d="M43,68 Q50,63 57,68 Q57,75 50,78 Q43,75 43,68 Z" fill="#2A1A0C"/><path d="M50,78 Q45,84 39,80" stroke="#2A1A0C" stroke-width="3.4" fill="none" stroke-linecap="round"/><path d="M50,78 Q55,84 61,80" stroke="#2A1A0C" stroke-width="3.4" fill="none" stroke-linecap="round"/><path d="M13,12 Q11,34 22,48 Q18,72 32,84 Q50,95 68,84 Q82,72 78,48 Q89,34 87,12 Q72,18 66,38 Q50,44 34,38 Q28,18 13,12 Z" fill="none" stroke="#3B2412" stroke-width="5" stroke-linejoin="round" stroke-linecap="round"/></svg>
<text x="275" y="410" text-anchor="middle" font-family="Verdana,sans-serif" font-size="13" font-weight="bold" fill="#1F3B36">Cream Puff</text>
<text x="275" y="425" text-anchor="middle" font-family="Verdana,sans-serif" font-size="11" fill="#5E7B75">level 14</text>
<rect x="366" y="256" width="158" height="176" rx="16" fill="#fff"/>
<svg x="394" y="268" width="90" height="90" viewBox="0 0 100 100"><clipPath id="cs-fox"><path d="M13,12 Q11,34 22,48 Q18,72 32,84 Q50,95 68,84 Q82,72 78,48 Q89,34 87,12 Q72,18 66,38 Q50,44 34,38 Q28,18 13,12 Z"/></clipPath><path d="M13,12 Q11,34 22,48 Q18,72 32,84 Q50,95 68,84 Q82,72 78,48 Q89,34 87,12 Q72,18 66,38 Q50,44 34,38 Q28,18 13,12 Z" fill="#C9662C"/><g clip-path="url(#cs-fox)"><path d="M50,33 Q44,49 41,61 Q30,63 27,76 Q34,91 50,93 Q66,91 73,76 Q70,63 59,61 Q56,49 50,33 Z" fill="#FBF1E0"/><path d="M18,19 Q18,35 24,46 Q31,34 30,23 Z" fill="#E9A26B"/><path d="M82,19 Q82,35 76,46 Q69,34 70,23 Z" fill="#E9A26B"/><ellipse cx="27" cy="66" rx="7" ry="4.5" fill="#F0879E" opacity=".4"/><ellipse cx="73" cy="66" rx="7" ry="4.5" fill="#F0879E" opacity=".4"/></g><ellipse cx="36" cy="56" rx="4.6" ry="5.6" fill="#2A1A0C"/><ellipse cx="64" cy="56" rx="4.6" ry="5.6" fill="#2A1A0C"/><circle cx="37.6" cy="53.8" r="1.5" fill="#fff"/><circle cx="65.6" cy="53.8" r="1.5" fill="#fff"/><path d="M43,68 Q50,63 57,68 Q57,75 50,78 Q43,75 43,68 Z" fill="#2A1A0C"/><path d="M46,80 Q46,92 53,90 Q57,87 55,79 Z" fill="#F0879E"/><path d="M50,78 Q45,84 39,80" stroke="#2A1A0C" stroke-width="3.4" fill="none" stroke-linecap="round"/><path d="M50,78 Q55,84 61,80" stroke="#2A1A0C" stroke-width="3.4" fill="none" stroke-linecap="round"/><path d="M13,12 Q11,34 22,48 Q18,72 32,84 Q50,95 68,84 Q82,72 78,48 Q89,34 87,12 Q72,18 66,38 Q50,44 34,38 Q28,18 13,12 Z" fill="none" stroke="#3B2412" stroke-width="5" stroke-linejoin="round" stroke-linecap="round"/></svg>
<rect x="418" y="364" width="28" height="28" rx="4" fill="#A58EEB" stroke="#12332C" stroke-width="2"/>
<circle cx="432" cy="378" r="9" fill="rgba(255,255,255,.92)"/>
<svg x="424" y="370" width="16" height="16" viewBox="0 0 100 100"><clipPath id="cs-fox-sm"><path d="M13,12 Q11,34 22,48 Q18,72 32,84 Q50,95 68,84 Q82,72 78,48 Q89,34 87,12 Q72,18 66,38 Q50,44 34,38 Q28,18 13,12 Z"/></clipPath><path d="M13,12 Q11,34 22,48 Q18,72 32,84 Q50,95 68,84 Q82,72 78,48 Q89,34 87,12 Q72,18 66,38 Q50,44 34,38 Q28,18 13,12 Z" fill="#C9662C"/><g clip-path="url(#cs-fox-sm)"><path d="M50,33 Q44,49 41,61 Q30,63 27,76 Q34,91 50,93 Q66,91 73,76 Q70,63 59,61 Q56,49 50,33 Z" fill="#FBF1E0"/><path d="M18,19 Q18,35 24,46 Q31,34 30,23 Z" fill="#E9A26B"/><path d="M82,19 Q82,35 76,46 Q69,34 70,23 Z" fill="#E9A26B"/><ellipse cx="27" cy="66" rx="7" ry="4.5" fill="#F0879E" opacity=".4"/><ellipse cx="73" cy="66" rx="7" ry="4.5" fill="#F0879E" opacity=".4"/></g><ellipse cx="36" cy="56" rx="4.6" ry="5.6" fill="#2A1A0C"/><ellipse cx="64" cy="56" rx="4.6" ry="5.6" fill="#2A1A0C"/><circle cx="37.6" cy="53.8" r="1.5" fill="#fff"/><circle cx="65.6" cy="53.8" r="1.5" fill="#fff"/><path d="M43,68 Q50,63 57,68 Q57,75 50,78 Q43,75 43,68 Z" fill="#2A1A0C"/><path d="M46,80 Q46,92 53,90 Q57,87 55,79 Z" fill="#F0879E"/><path d="M50,78 Q45,84 39,80" stroke="#2A1A0C" stroke-width="3.4" fill="none" stroke-linecap="round"/><path d="M50,78 Q55,84 61,80" stroke="#2A1A0C" stroke-width="3.4" fill="none" stroke-linecap="round"/><path d="M13,12 Q11,34 22,48 Q18,72 32,84 Q50,95 68,84 Q82,72 78,48 Q89,34 87,12 Q72,18 66,38 Q50,44 34,38 Q28,18 13,12 Z" fill="none" stroke="#3B2412" stroke-width="5" stroke-linejoin="round" stroke-linecap="round"/></svg>
<text x="445" y="410" text-anchor="middle" font-family="Verdana,sans-serif" font-size="13" font-weight="bold" fill="#1F3B36">Red Fox</text>
<text x="445" y="425" text-anchor="middle" font-family="Verdana,sans-serif" font-size="11" fill="#5E7B75">level 20</text>
<rect x="536" y="256" width="158" height="176" rx="16" fill="#fff"/>
<svg x="564" y="268" width="90" height="90" viewBox="0 0 100 100"><clipPath id="cs-sable"><path d="M13,12 Q11,34 22,48 Q18,72 32,84 Q50,95 68,84 Q82,72 78,48 Q89,34 87,12 Q72,18 66,38 Q50,44 34,38 Q28,18 13,12 Z"/></clipPath><path d="M13,12 Q11,34 22,48 Q18,72 32,84 Q50,95 68,84 Q82,72 78,48 Q89,34 87,12 Q72,18 66,38 Q50,44 34,38 Q28,18 13,12 Z" fill="#8A5A32"/><g clip-path="url(#cs-sable)"><path d="M50,33 Q44,49 41,61 Q30,63 27,76 Q34,91 50,93 Q66,91 73,76 Q70,63 59,61 Q56,49 50,33 Z" fill="#F6E9D4"/><path d="M18,19 Q18,35 24,46 Q31,34 30,23 Z" fill="#C08B5C"/><path d="M82,19 Q82,35 76,46 Q69,34 70,23 Z" fill="#C08B5C"/><ellipse cx="27" cy="66" rx="7" ry="4.5" fill="#F0879E" opacity=".4"/><ellipse cx="73" cy="66" rx="7" ry="4.5" fill="#F0879E" opacity=".4"/></g><ellipse cx="36" cy="56" rx="4.6" ry="5.6" fill="#2A1A0C"/><ellipse cx="64" cy="56" rx="4.6" ry="5.6" fill="#2A1A0C"/><circle cx="37.6" cy="53.8" r="1.5" fill="#fff"/><circle cx="65.6" cy="53.8" r="1.5" fill="#fff"/><path d="M43,68 Q50,63 57,68 Q57,75 50,78 Q43,75 43,68 Z" fill="#2A1A0C"/><path d="M50,78 Q45,84 39,80" stroke="#2A1A0C" stroke-width="3.4" fill="none" stroke-linecap="round"/><path d="M50,78 Q55,84 61,80" stroke="#2A1A0C" stroke-width="3.4" fill="none" stroke-linecap="round"/><path d="M13,12 Q11,34 22,48 Q18,72 32,84 Q50,95 68,84 Q82,72 78,48 Q89,34 87,12 Q72,18 66,38 Q50,44 34,38 Q28,18 13,12 Z" fill="none" stroke="#3B2412" stroke-width="5" stroke-linejoin="round" stroke-linecap="round"/></svg>
<rect x="588" y="364" width="28" height="28" rx="4" fill="#A58EEB" stroke="#12332C" stroke-width="2"/>
<circle cx="602" cy="378" r="9" fill="rgba(255,255,255,.92)"/>
<svg x="594" y="370" width="16" height="16" viewBox="0 0 100 100"><clipPath id="cs-sable-sm"><path d="M13,12 Q11,34 22,48 Q18,72 32,84 Q50,95 68,84 Q82,72 78,48 Q89,34 87,12 Q72,18 66,38 Q50,44 34,38 Q28,18 13,12 Z"/></clipPath><path d="M13,12 Q11,34 22,48 Q18,72 32,84 Q50,95 68,84 Q82,72 78,48 Q89,34 87,12 Q72,18 66,38 Q50,44 34,38 Q28,18 13,12 Z" fill="#8A5A32"/><g clip-path="url(#cs-sable-sm)"><path d="M50,33 Q44,49 41,61 Q30,63 27,76 Q34,91 50,93 Q66,91 73,76 Q70,63 59,61 Q56,49 50,33 Z" fill="#F6E9D4"/><path d="M18,19 Q18,35 24,46 Q31,34 30,23 Z" fill="#C08B5C"/><path d="M82,19 Q82,35 76,46 Q69,34 70,23 Z" fill="#C08B5C"/><ellipse cx="27" cy="66" rx="7" ry="4.5" fill="#F0879E" opacity=".4"/><ellipse cx="73" cy="66" rx="7" ry="4.5" fill="#F0879E" opacity=".4"/></g><ellipse cx="36" cy="56" rx="4.6" ry="5.6" fill="#2A1A0C"/><ellipse cx="64" cy="56" rx="4.6" ry="5.6" fill="#2A1A0C"/><circle cx="37.6" cy="53.8" r="1.5" fill="#fff"/><circle cx="65.6" cy="53.8" r="1.5" fill="#fff"/><path d="M43,68 Q50,63 57,68 Q57,75 50,78 Q43,75 43,68 Z" fill="#2A1A0C"/><path d="M50,78 Q45,84 39,80" stroke="#2A1A0C" stroke-width="3.4" fill="none" stroke-linecap="round"/><path d="M50,78 Q55,84 61,80" stroke="#2A1A0C" stroke-width="3.4" fill="none" stroke-linecap="round"/><path d="M13,12 Q11,34 22,48 Q18,72 32,84 Q50,95 68,84 Q82,72 78,48 Q89,34 87,12 Q72,18 66,38 Q50,44 34,38 Q28,18 13,12 Z" fill="none" stroke="#3B2412" stroke-width="5" stroke-linejoin="round" stroke-linecap="round"/></svg>
<text x="615" y="410" text-anchor="middle" font-family="Verdana,sans-serif" font-size="13" font-weight="bold" fill="#1F3B36">Sable</text>
<text x="615" y="425" text-anchor="middle" font-family="Verdana,sans-serif" font-size="11" fill="#5E7B75">level 30</text>
<rect x="26" y="446" width="158" height="176" rx="16" fill="#fff"/>
<svg x="54" y="458" width="90" height="90" viewBox="0 0 100 100"><clipPath id="cs-tri"><path d="M13,12 Q11,34 22,48 Q18,72 32,84 Q50,95 68,84 Q82,72 78,48 Q89,34 87,12 Q72,18 66,38 Q50,44 34,38 Q28,18 13,12 Z"/></clipPath><path d="M13,12 Q11,34 22,48 Q18,72 32,84 Q50,95 68,84 Q82,72 78,48 Q89,34 87,12 Q72,18 66,38 Q50,44 34,38 Q28,18 13,12 Z" fill="#3B332F"/><g clip-path="url(#cs-tri)"><path d="M50,33 Q44,49 41,61 Q30,63 27,76 Q34,91 50,93 Q66,91 73,76 Q70,63 59,61 Q56,49 50,33 Z" fill="#F6E9D4"/><ellipse cx="35" cy="46" rx="6" ry="4" fill="#C88B4E"/><ellipse cx="65" cy="46" rx="6" ry="4" fill="#C88B4E"/><path d="M18,19 Q18,35 24,46 Q31,34 30,23 Z" fill="#9A7350"/><path d="M82,19 Q82,35 76,46 Q69,34 70,23 Z" fill="#9A7350"/><ellipse cx="27" cy="66" rx="7" ry="4.5" fill="#F0879E" opacity=".4"/><ellipse cx="73" cy="66" rx="7" ry="4.5" fill="#F0879E" opacity=".4"/></g><ellipse cx="36" cy="56" rx="4.6" ry="5.6" fill="#171210"/><ellipse cx="64" cy="56" rx="4.6" ry="5.6" fill="#171210"/><circle cx="37.6" cy="53.8" r="1.5" fill="#fff"/><circle cx="65.6" cy="53.8" r="1.5" fill="#fff"/><path d="M43,68 Q50,63 57,68 Q57,75 50,78 Q43,75 43,68 Z" fill="#171210"/><path d="M50,78 Q45,84 39,80" stroke="#171210" stroke-width="3.4" fill="none" stroke-linecap="round"/><path d="M50,78 Q55,84 61,80" stroke="#171210" stroke-width="3.4" fill="none" stroke-linecap="round"/><path d="M13,12 Q11,34 22,48 Q18,72 32,84 Q50,95 68,84 Q82,72 78,48 Q89,34 87,12 Q72,18 66,38 Q50,44 34,38 Q28,18 13,12 Z" fill="none" stroke="#3B2412" stroke-width="5" stroke-linejoin="round" stroke-linecap="round"/></svg>
<rect x="78" y="554" width="28" height="28" rx="4" fill="#A58EEB" stroke="#12332C" stroke-width="2"/>
<circle cx="92" cy="568" r="9" fill="rgba(255,255,255,.92)"/>
<svg x="84" y="560" width="16" height="16" viewBox="0 0 100 100"><clipPath id="cs-tri-sm"><path d="M13,12 Q11,34 22,48 Q18,72 32,84 Q50,95 68,84 Q82,72 78,48 Q89,34 87,12 Q72,18 66,38 Q50,44 34,38 Q28,18 13,12 Z"/></clipPath><path d="M13,12 Q11,34 22,48 Q18,72 32,84 Q50,95 68,84 Q82,72 78,48 Q89,34 87,12 Q72,18 66,38 Q50,44 34,38 Q28,18 13,12 Z" fill="#3B332F"/><g clip-path="url(#cs-tri-sm)"><path d="M50,33 Q44,49 41,61 Q30,63 27,76 Q34,91 50,93 Q66,91 73,76 Q70,63 59,61 Q56,49 50,33 Z" fill="#F6E9D4"/><ellipse cx="35" cy="46" rx="6" ry="4" fill="#C88B4E"/><ellipse cx="65" cy="46" rx="6" ry="4" fill="#C88B4E"/><path d="M18,19 Q18,35 24,46 Q31,34 30,23 Z" fill="#9A7350"/><path d="M82,19 Q82,35 76,46 Q69,34 70,23 Z" fill="#9A7350"/><ellipse cx="27" cy="66" rx="7" ry="4.5" fill="#F0879E" opacity=".4"/><ellipse cx="73" cy="66" rx="7" ry="4.5" fill="#F0879E" opacity=".4"/></g><ellipse cx="36" cy="56" rx="4.6" ry="5.6" fill="#171210"/><ellipse cx="64" cy="56" rx="4.6" ry="5.6" fill="#171210"/><circle cx="37.6" cy="53.8" r="1.5" fill="#fff"/><circle cx="65.6" cy="53.8" r="1.5" fill="#fff"/><path d="M43,68 Q50,63 57,68 Q57,75 50,78 Q43,75 43,68 Z" fill="#171210"/><path d="M50,78 Q45,84 39,80" stroke="#171210" stroke-width="3.4" fill="none" stroke-linecap="round"/><path d="M50,78 Q55,84 61,80" stroke="#171210" stroke-width="3.4" fill="none" stroke-linecap="round"/><path d="M13,12 Q11,34 22,48 Q18,72 32,84 Q50,95 68,84 Q82,72 78,48 Q89,34 87,12 Q72,18 66,38 Q50,44 34,38 Q28,18 13,12 Z" fill="none" stroke="#3B2412" stroke-width="5" stroke-linejoin="round" stroke-linecap="round"/></svg>
<text x="105" y="600" text-anchor="middle" font-family="Verdana,sans-serif" font-size="13" font-weight="bold" fill="#1F3B36">Tri-Color</text>
<text x="105" y="615" text-anchor="middle" font-family="Verdana,sans-serif" font-size="11" fill="#5E7B75">level 40</text>
<rect x="196" y="446" width="158" height="176" rx="16" fill="#fff"/>
<svg x="224" y="458" width="90" height="90" viewBox="0 0 100 100"><clipPath id="cs-patch"><path d="M13,12 Q11,34 22,48 Q18,72 32,84 Q50,95 68,84 Q82,72 78,48 Q89,34 87,12 Q72,18 66,38 Q50,44 34,38 Q28,18 13,12 Z"/></clipPath><path d="M13,12 Q11,34 22,48 Q18,72 32,84 Q50,95 68,84 Q82,72 78,48 Q89,34 87,12 Q72,18 66,38 Q50,44 34,38 Q28,18 13,12 Z" fill="#EFD3A0"/><g clip-path="url(#cs-patch)"><path d="M30,34 Q50,32 54,52 Q46,72 28,66 Q20,48 30,34 Z" fill="#C9662C"/><path d="M50,33 Q44,49 41,61 Q30,63 27,76 Q34,91 50,93 Q66,91 73,76 Q70,63 59,61 Q56,49 50,33 Z" fill="#FFF8EC"/><path d="M18,19 Q18,35 24,46 Q31,34 30,23 Z" fill="#E6BE93"/><path d="M82,19 Q82,35 76,46 Q69,34 70,23 Z" fill="#E6BE93"/><ellipse cx="27" cy="66" rx="7" ry="4.5" fill="#F0879E" opacity=".4"/><ellipse cx="73" cy="66" rx="7" ry="4.5" fill="#F0879E" opacity=".4"/></g><ellipse cx="36" cy="56" rx="4.6" ry="5.6" fill="#2A1A0C"/><ellipse cx="64" cy="56" rx="4.6" ry="5.6" fill="#2A1A0C"/><circle cx="37.6" cy="53.8" r="1.5" fill="#fff"/><circle cx="65.6" cy="53.8" r="1.5" fill="#fff"/><path d="M43,68 Q50,63 57,68 Q57,75 50,78 Q43,75 43,68 Z" fill="#2A1A0C"/><path d="M50,78 Q45,84 39,80" stroke="#2A1A0C" stroke-width="3.4" fill="none" stroke-linecap="round"/><path d="M50,78 Q55,84 61,80" stroke="#2A1A0C" stroke-width="3.4" fill="none" stroke-linecap="round"/><path d="M13,12 Q11,34 22,48 Q18,72 32,84 Q50,95 68,84 Q82,72 78,48 Q89,34 87,12 Q72,18 66,38 Q50,44 34,38 Q28,18 13,12 Z" fill="none" stroke="#3B2412" stroke-width="5" stroke-linejoin="round" stroke-linecap="round"/></svg>
<rect x="248" y="554" width="28" height="28" rx="4" fill="#A58EEB" stroke="#12332C" stroke-width="2"/>
<circle cx="262" cy="568" r="9" fill="rgba(255,255,255,.92)"/>
<svg x="254" y="560" width="16" height="16" viewBox="0 0 100 100"><clipPath id="cs-patch-sm"><path d="M13,12 Q11,34 22,48 Q18,72 32,84 Q50,95 68,84 Q82,72 78,48 Q89,34 87,12 Q72,18 66,38 Q50,44 34,38 Q28,18 13,12 Z"/></clipPath><path d="M13,12 Q11,34 22,48 Q18,72 32,84 Q50,95 68,84 Q82,72 78,48 Q89,34 87,12 Q72,18 66,38 Q50,44 34,38 Q28,18 13,12 Z" fill="#EFD3A0"/><g clip-path="url(#cs-patch-sm)"><path d="M30,34 Q50,32 54,52 Q46,72 28,66 Q20,48 30,34 Z" fill="#C9662C"/><path d="M50,33 Q44,49 41,61 Q30,63 27,76 Q34,91 50,93 Q66,91 73,76 Q70,63 59,61 Q56,49 50,33 Z" fill="#FFF8EC"/><path d="M18,19 Q18,35 24,46 Q31,34 30,23 Z" fill="#E6BE93"/><path d="M82,19 Q82,35 76,46 Q69,34 70,23 Z" fill="#E6BE93"/><ellipse cx="27" cy="66" rx="7" ry="4.5" fill="#F0879E" opacity=".4"/><ellipse cx="73" cy="66" rx="7" ry="4.5" fill="#F0879E" opacity=".4"/></g><ellipse cx="36" cy="56" rx="4.6" ry="5.6" fill="#2A1A0C"/><ellipse cx="64" cy="56" rx="4.6" ry="5.6" fill="#2A1A0C"/><circle cx="37.6" cy="53.8" r="1.5" fill="#fff"/><circle cx="65.6" cy="53.8" r="1.5" fill="#fff"/><path d="M43,68 Q50,63 57,68 Q57,75 50,78 Q43,75 43,68 Z" fill="#2A1A0C"/><path d="M50,78 Q45,84 39,80" stroke="#2A1A0C" stroke-width="3.4" fill="none" stroke-linecap="round"/><path d="M50,78 Q55,84 61,80" stroke="#2A1A0C" stroke-width="3.4" fill="none" stroke-linecap="round"/><path d="M13,12 Q11,34 22,48 Q18,72 32,84 Q50,95 68,84 Q82,72 78,48 Q89,34 87,12 Q72,18 66,38 Q50,44 34,38 Q28,18 13,12 Z" fill="none" stroke="#3B2412" stroke-width="5" stroke-linejoin="round" stroke-linecap="round"/></svg>
<text x="275" y="600" text-anchor="middle" font-family="Verdana,sans-serif" font-size="13" font-weight="bold" fill="#1F3B36">Patch</text>
<text x="275" y="615" text-anchor="middle" font-family="Verdana,sans-serif" font-size="11" fill="#5E7B75">level 55</text>
<rect x="366" y="446" width="158" height="176" rx="16" fill="#fff"/>
<svg x="394" y="458" width="90" height="90" viewBox="0 0 100 100"><clipPath id="cs-shades"><path d="M13,12 Q11,34 22,48 Q18,72 32,84 Q50,95 68,84 Q82,72 78,48 Q89,34 87,12 Q72,18 66,38 Q50,44 34,38 Q28,18 13,12 Z"/></clipPath><path d="M13,12 Q11,34 22,48 Q18,72 32,84 Q50,95 68,84 Q82,72 78,48 Q89,34 87,12 Q72,18 66,38 Q50,44 34,38 Q28,18 13,12 Z" fill="#E8A14A"/><g clip-path="url(#cs-shades)"><path d="M50,33 Q44,49 41,61 Q30,63 27,76 Q34,91 50,93 Q66,91 73,76 Q70,63 59,61 Q56,49 50,33 Z" fill="#FBF1E0"/><path d="M18,19 Q18,35 24,46 Q31,34 30,23 Z" fill="#F2D9B8"/><path d="M82,19 Q82,35 76,46 Q69,34 70,23 Z" fill="#F2D9B8"/><ellipse cx="27" cy="66" rx="7" ry="4.5" fill="#F0879E" opacity=".4"/><ellipse cx="73" cy="66" rx="7" ry="4.5" fill="#F0879E" opacity=".4"/></g><ellipse cx="36" cy="56" rx="4.6" ry="5.6" fill="#2A1A0C"/><ellipse cx="64" cy="56" rx="4.6" ry="5.6" fill="#2A1A0C"/><circle cx="37.6" cy="53.8" r="1.5" fill="#fff"/><circle cx="65.6" cy="53.8" r="1.5" fill="#fff"/><path d="M24,52 H76 V58 Q76,68 64,68 Q54,68 52,58 Q50,54 48,58 Q46,68 36,68 Q24,68 24,58 Z" fill="#20242B"/><path d="M28,55 Q33,54 38,56" stroke="#fff" stroke-width="2" fill="none" opacity=".55" stroke-linecap="round"/><path d="M43,68 Q50,63 57,68 Q57,75 50,78 Q43,75 43,68 Z" fill="#2A1A0C"/><path d="M46,80 Q46,92 53,90 Q57,87 55,79 Z" fill="#F0879E"/><path d="M50,78 Q45,84 39,80" stroke="#2A1A0C" stroke-width="3.4" fill="none" stroke-linecap="round"/><path d="M50,78 Q55,84 61,80" stroke="#2A1A0C" stroke-width="3.4" fill="none" stroke-linecap="round"/><path d="M13,12 Q11,34 22,48 Q18,72 32,84 Q50,95 68,84 Q82,72 78,48 Q89,34 87,12 Q72,18 66,38 Q50,44 34,38 Q28,18 13,12 Z" fill="none" stroke="#3B2412" stroke-width="5" stroke-linejoin="round" stroke-linecap="round"/></svg>
<rect x="418" y="554" width="28" height="28" rx="4" fill="#A58EEB" stroke="#12332C" stroke-width="2"/>
<circle cx="432" cy="568" r="9" fill="rgba(255,255,255,.92)"/>
<svg x="424" y="560" width="16" height="16" viewBox="0 0 100 100"><clipPath id="cs-shades-sm"><path d="M13,12 Q11,34 22,48 Q18,72 32,84 Q50,95 68,84 Q82,72 78,48 Q89,34 87,12 Q72,18 66,38 Q50,44 34,38 Q28,18 13,12 Z"/></clipPath><path d="M13,12 Q11,34 22,48 Q18,72 32,84 Q50,95 68,84 Q82,72 78,48 Q89,34 87,12 Q72,18 66,38 Q50,44 34,38 Q28,18 13,12 Z" fill="#E8A14A"/><g clip-path="url(#cs-shades-sm)"><path d="M50,33 Q44,49 41,61 Q30,63 27,76 Q34,91 50,93 Q66,91 73,76 Q70,63 59,61 Q56,49 50,33 Z" fill="#FBF1E0"/><path d="M18,19 Q18,35 24,46 Q31,34 30,23 Z" fill="#F2D9B8"/><path d="M82,19 Q82,35 76,46 Q69,34 70,23 Z" fill="#F2D9B8"/><ellipse cx="27" cy="66" rx="7" ry="4.5" fill="#F0879E" opacity=".4"/><ellipse cx="73" cy="66" rx="7" ry="4.5" fill="#F0879E" opacity=".4"/></g><ellipse cx="36" cy="56" rx="4.6" ry="5.6" fill="#2A1A0C"/><ellipse cx="64" cy="56" rx="4.6" ry="5.6" fill="#2A1A0C"/><circle cx="37.6" cy="53.8" r="1.5" fill="#fff"/><circle cx="65.6" cy="53.8" r="1.5" fill="#fff"/><path d="M24,52 H76 V58 Q76,68 64,68 Q54,68 52,58 Q50,54 48,58 Q46,68 36,68 Q24,68 24,58 Z" fill="#20242B"/><path d="M28,55 Q33,54 38,56" stroke="#fff" stroke-width="2" fill="none" opacity=".55" stroke-linecap="round"/><path d="M43,68 Q50,63 57,68 Q57,75 50,78 Q43,75 43,68 Z" fill="#2A1A0C"/><path d="M46,80 Q46,92 53,90 Q57,87 55,79 Z" fill="#F0879E"/><path d="M50,78 Q45,84 39,80" stroke="#2A1A0C" stroke-width="3.4" fill="none" stroke-linecap="round"/><path d="M50,78 Q55,84 61,80" stroke="#2A1A0C" stroke-width="3.4" fill="none" stroke-linecap="round"/><path d="M13,12 Q11,34 22,48 Q18,72 32,84 Q50,95 68,84 Q82,72 78,48 Q89,34 87,12 Q72,18 66,38 Q50,44 34,38 Q28,18 13,12 Z" fill="none" stroke="#3B2412" stroke-width="5" stroke-linejoin="round" stroke-linecap="round"/></svg>
<text x="445" y="600" text-anchor="middle" font-family="Verdana,sans-serif" font-size="13" font-weight="bold" fill="#1F3B36">Cool Shades</text>
<text x="445" y="615" text-anchor="middle" font-family="Verdana,sans-serif" font-size="11" fill="#5E7B75">level 75</text>
<rect x="536" y="446" width="158" height="176" rx="16" fill="#fff"/>
<svg x="564" y="458" width="90" height="90" viewBox="0 0 100 100"><clipPath id="cs-party"><path d="M13,12 Q11,34 22,48 Q18,72 32,84 Q50,95 68,84 Q82,72 78,48 Q89,34 87,12 Q72,18 66,38 Q50,44 34,38 Q28,18 13,12 Z"/></clipPath><path d="M13,12 Q11,34 22,48 Q18,72 32,84 Q50,95 68,84 Q82,72 78,48 Q89,34 87,12 Q72,18 66,38 Q50,44 34,38 Q28,18 13,12 Z" fill="#E8A14A"/><g clip-path="url(#cs-party)"><path d="M50,33 Q44,49 41,61 Q30,63 27,76 Q34,91 50,93 Q66,91 73,76 Q70,63 59,61 Q56,49 50,33 Z" fill="#FBF1E0"/><path d="M18,19 Q18,35 24,46 Q31,34 30,23 Z" fill="#F2D9B8"/><path d="M82,19 Q82,35 76,46 Q69,34 70,23 Z" fill="#F2D9B8"/><ellipse cx="27" cy="66" rx="7" ry="4.5" fill="#F0879E" opacity=".4"/><ellipse cx="73" cy="66" rx="7" ry="4.5" fill="#F0879E" opacity=".4"/></g><ellipse cx="36" cy="56" rx="4.6" ry="5.6" fill="#2A1A0C"/><ellipse cx="64" cy="56" rx="4.6" ry="5.6" fill="#2A1A0C"/><circle cx="37.6" cy="53.8" r="1.5" fill="#fff"/><circle cx="65.6" cy="53.8" r="1.5" fill="#fff"/><path d="M43,68 Q50,63 57,68 Q57,75 50,78 Q43,75 43,68 Z" fill="#2A1A0C"/><path d="M46,80 Q46,92 53,90 Q57,87 55,79 Z" fill="#F0879E"/><path d="M50,78 Q45,84 39,80" stroke="#2A1A0C" stroke-width="3.4" fill="none" stroke-linecap="round"/><path d="M50,78 Q55,84 61,80" stroke="#2A1A0C" stroke-width="3.4" fill="none" stroke-linecap="round"/><path d="M50,2 L63,36 H37 Z" fill="#F0879E" stroke="#3B2412" stroke-width="4" stroke-linejoin="round"/><circle cx="50" cy="3" r="5" fill="#FFD166" stroke="#3B2412" stroke-width="3.5"/><path d="M13,12 Q11,34 22,48 Q18,72 32,84 Q50,95 68,84 Q82,72 78,48 Q89,34 87,12 Q72,18 66,38 Q50,44 34,38 Q28,18 13,12 Z" fill="none" stroke="#3B2412" stroke-width="5" stroke-linejoin="round" stroke-linecap="round"/></svg>
<rect x="588" y="554" width="28" height="28" rx="4" fill="#A58EEB" stroke="#12332C" stroke-width="2"/>
<circle cx="602" cy="568" r="9" fill="rgba(255,255,255,.92)"/>
<svg x="594" y="560" width="16" height="16" viewBox="0 0 100 100"><clipPath id="cs-party-sm"><path d="M13,12 Q11,34 22,48 Q18,72 32,84 Q50,95 68,84 Q82,72 78,48 Q89,34 87,12 Q72,18 66,38 Q50,44 34,38 Q28,18 13,12 Z"/></clipPath><path d="M13,12 Q11,34 22,48 Q18,72 32,84 Q50,95 68,84 Q82,72 78,48 Q89,34 87,12 Q72,18 66,38 Q50,44 34,38 Q28,18 13,12 Z" fill="#E8A14A"/><g clip-path="url(#cs-party-sm)"><path d="M50,33 Q44,49 41,61 Q30,63 27,76 Q34,91 50,93 Q66,91 73,76 Q70,63 59,61 Q56,49 50,33 Z" fill="#FBF1E0"/><path d="M18,19 Q18,35 24,46 Q31,34 30,23 Z" fill="#F2D9B8"/><path d="M82,19 Q82,35 76,46 Q69,34 70,23 Z" fill="#F2D9B8"/><ellipse cx="27" cy="66" rx="7" ry="4.5" fill="#F0879E" opacity=".4"/><ellipse cx="73" cy="66" rx="7" ry="4.5" fill="#F0879E" opacity=".4"/></g><ellipse cx="36" cy="56" rx="4.6" ry="5.6" fill="#2A1A0C"/><ellipse cx="64" cy="56" rx="4.6" ry="5.6" fill="#2A1A0C"/><circle cx="37.6" cy="53.8" r="1.5" fill="#fff"/><circle cx="65.6" cy="53.8" r="1.5" fill="#fff"/><path d="M43,68 Q50,63 57,68 Q57,75 50,78 Q43,75 43,68 Z" fill="#2A1A0C"/><path d="M46,80 Q46,92 53,90 Q57,87 55,79 Z" fill="#F0879E"/><path d="M50,78 Q45,84 39,80" stroke="#2A1A0C" stroke-width="3.4" fill="none" stroke-linecap="round"/><path d="M50,78 Q55,84 61,80" stroke="#2A1A0C" stroke-width="3.4" fill="none" stroke-linecap="round"/><path d="M50,2 L63,36 H37 Z" fill="#F0879E" stroke="#3B2412" stroke-width="4" stroke-linejoin="round"/><circle cx="50" cy="3" r="5" fill="#FFD166" stroke="#3B2412" stroke-width="3.5"/><path d="M13,12 Q11,34 22,48 Q18,72 32,84 Q50,95 68,84 Q82,72 78,48 Q89,34 87,12 Q72,18 66,38 Q50,44 34,38 Q28,18 13,12 Z" fill="none" stroke="#3B2412" stroke-width="5" stroke-linejoin="round" stroke-linecap="round"/></svg>
<text x="615" y="600" text-anchor="middle" font-family="Verdana,sans-serif" font-size="13" font-weight="bold" fill="#1F3B36">Party Pup</text>
<text x="615" y="615" text-anchor="middle" font-family="Verdana,sans-serif" font-size="11" fill="#5E7B75">level 100</text>
</svg>