<svg xmlns="http://www.w3.org/2000/svg" width="740" height="380" viewBox="0 0 740 380">
<rect width="740" height="380" fill="#EAF6F0"/>
<text x="370" y="46" text-anchor="middle" font-family="Verdana,sans-serif" font-size="22" font-weight="bold" fill="#1F3B36">Corgdoku — paw prints</text>
<rect x="26" y="66" width="128" height="136" rx="16" fill="#fff"/>
<g color="#1F3B36"><svg x="36" y="80" width="52" height="52" viewBox="0 0 100 100"><g fill="currentColor"><ellipse cx="50" cy="68" rx="30" ry="24"/><ellipse cx="18" cy="38" rx="14" ry="16"/><ellipse cx="41" cy="17" rx="13" ry="15"/><ellipse cx="67" cy="17" rx="13" ry="15"/><ellipse cx="88" cy="40" rx="12" ry="15"/></g></svg></g>
<g color="#FF6F61"><svg x="92" y="80" width="52" height="52" viewBox="0 0 100 100"><g fill="currentColor"><ellipse cx="50" cy="68" rx="30" ry="24"/><ellipse cx="18" cy="38" rx="14" ry="16"/><ellipse cx="41" cy="17" rx="13" ry="15"/><ellipse cx="67" cy="17" rx="13" ry="15"/><ellipse cx="88" cy="40" rx="12" ry="15"/></g></svg></g>
<g color="#1F3B36"><svg x="79" y="140" width="22" height="22" viewBox="0 0 100 100"><g fill="currentColor"><ellipse cx="50" cy="68" rx="30" ry="24"/><ellipse cx="18" cy="38" rx="14" ry="16"/><ellipse cx="41" cy="17" rx="13" ry="15"/><ellipse cx="67" cy="17" rx="13" ry="15"/><ellipse cx="88" cy="40" rx="12" ry="15"/></g></svg></g>
<text x="90" y="182" text-anchor="middle" font-family="Verdana,sans-serif" font-size="13" font-weight="bold" fill="#1F3B36">Chunky</text>
<text x="90" y="197" text-anchor="middle" font-family="Verdana,sans-serif" font-size="11" fill="#5E7B75">unlocked</text>
<rect x="166" y="66" width="128" height="136" rx="16" fill="#fff"/>
<g color="#1F3B36"><svg x="176" y="80" width="52" height="52" viewBox="0 0 100 100"><g fill="currentColor"><ellipse cx="50" cy="70" rx="25" ry="21"/><ellipse cx="19" cy="45" rx="11" ry="13" transform="rotate(-20 19 45)"/><ellipse cx="37" cy="22" rx="11" ry="13" transform="rotate(-8 37 22)"/><ellipse cx="63" cy="22" rx="11" ry="13" transform="rotate(8 63 22)"/><ellipse cx="81" cy="45" rx="11" ry="13" transform="rotate(20 81 45)"/></g></svg></g>
<g color="#FF6F61"><svg x="232" y="80" width="52" height="52" viewBox="0 0 100 100"><g fill="currentColor"><ellipse cx="50" cy="70" rx="25" ry="21"/><ellipse cx="19" cy="45" rx="11" ry="13" transform="rotate(-20 19 45)"/><ellipse cx="37" cy="22" rx="11" ry="13" transform="rotate(-8 37 22)"/><ellipse cx="63" cy="22" rx="11" ry="13" transform="rotate(8 63 22)"/><ellipse cx="81" cy="45" rx="11" ry="13" transform="rotate(20 81 45)"/></g></svg></g>
<g color="#1F3B36"><svg x="219" y="140" width="22" height="22" viewBox="0 0 100 100"><g fill="currentColor"><ellipse cx="50" cy="70" rx="25" ry="21"/><ellipse cx="19" cy="45" rx="11" ry="13" transform="rotate(-20 19 45)"/><ellipse cx="37" cy="22" rx="11" ry="13" transform="rotate(-8 37 22)"/><ellipse cx="63" cy="22" rx="11" ry="13" transform="rotate(8 63 22)"/><ellipse cx="81" cy="45" rx="11" ry="13" transform="rotate(20 81 45)"/></g></svg></g>
<text x="230" y="182" text-anchor="middle" font-family="Verdana,sans-serif" font-size="13" font-weight="bold" fill="#1F3B36">Classic</text>
<text x="230" y="197" text-anchor="middle" font-family="Verdana,sans-serif" font-size="11" fill="#5E7B75">level 3</text>
<rect x="306" y="66" width="128" height="136" rx="16" fill="#fff"/>
<g color="#1F3B36"><svg x="316" y="80" width="52" height="52" viewBox="0 0 100 100"><g fill="currentColor"><ellipse cx="50" cy="71" rx="34" ry="20"/><ellipse cx="14" cy="43" rx="13" ry="12"/><ellipse cx="36" cy="24" rx="13" ry="12"/><ellipse cx="64" cy="24" rx="13" ry="12"/><ellipse cx="86" cy="43" rx="13" ry="12"/></g></svg></g>
<g color="#FF6F61"><svg x="372" y="80" width="52" height="52" viewBox="0 0 100 100"><g fill="currentColor"><ellipse cx="50" cy="71" rx="34" ry="20"/><ellipse cx="14" cy="43" rx="13" ry="12"/><ellipse cx="36" cy="24" rx="13" ry="12"/><ellipse cx="64" cy="24" rx="13" ry="12"/><ellipse cx="86" cy="43" rx="13" ry="12"/></g></svg></g>
<g color="#1F3B36"><svg x="359" y="140" width="22" height="22" viewBox="0 0 100 100"><g fill="currentColor"><ellipse cx="50" cy="71" rx="34" ry="20"/><ellipse cx="14" cy="43" rx="13" ry="12"/><ellipse cx="36" cy="24" rx="13" ry="12"/><ellipse cx="64" cy="24" rx="13" ry="12"/><ellipse cx="86" cy="43" rx="13" ry="12"/></g></svg></g>
<text x="370" y="182" text-anchor="middle" font-family="Verdana,sans-serif" font-size="13" font-weight="bold" fill="#1F3B36">Wide</text>
<text x="370" y="197" text-anchor="middle" font-family="Verdana,sans-serif" font-size="11" fill="#5E7B75">level 5</text>
<rect x="446" y="66" width="128" height="136" rx="16" fill="#fff"/>
<g color="#1F3B36"><svg x="456" y="80" width="52" height="52" viewBox="0 0 100 100"><g fill="currentColor"><ellipse cx="50" cy="72" rx="20" ry="18"/><ellipse cx="23" cy="50" rx="8.5" ry="11.5" transform="rotate(-25 23 50)"/><ellipse cx="39" cy="28" rx="8.5" ry="11.5" transform="rotate(-10 39 28)"/><ellipse cx="61" cy="28" rx="8.5" ry="11.5" transform="rotate(10 61 28)"/><ellipse cx="77" cy="50" rx="8.5" ry="11.5" transform="rotate(25 77 50)"/></g></svg></g>
<g color="#FF6F61"><svg x="512" y="80" width="52" height="52" viewBox="0 0 100 100"><g fill="currentColor"><ellipse cx="50" cy="72" rx="20" ry="18"/><ellipse cx="23" cy="50" rx="8.5" ry="11.5" transform="rotate(-25 23 50)"/><ellipse cx="39" cy="28" rx="8.5" ry="11.5" transform="rotate(-10 39 28)"/><ellipse cx="61" cy="28" rx="8.5" ry="11.5" transform="rotate(10 61 28)"/><ellipse cx="77" cy="50" rx="8.5" ry="11.5" transform="rotate(25 77 50)"/></g></svg></g>
<g color="#1F3B36"><svg x="499" y="140" width="22" height="22" viewBox="0 0 100 100"><g fill="currentColor"><ellipse cx="50" cy="72" rx="20" ry="18"/><ellipse cx="23" cy="50" rx="8.5" ry="11.5" transform="rotate(-25 23 50)"/><ellipse cx="39" cy="28" rx="8.5" ry="11.5" transform="rotate(-10 39 28)"/><ellipse cx="61" cy="28" rx="8.5" ry="11.5" transform="rotate(10 61 28)"/><ellipse cx="77" cy="50" rx="8.5" ry="11.5" transform="rotate(25 77 50)"/></g></svg></g>
<text x="510" y="182" text-anchor="middle" font-family="Verdana,sans-serif" font-size="13" font-weight="bold" fill="#1F3B36">Dainty</text>
<text x="510" y="197" text-anchor="middle" font-family="Verdana,sans-serif" font-size="11" fill="#5E7B75">level 8</text>
<rect x="586" y="66" width="128" height="136" rx="16" fill="#fff"/>
<g color="#1F3B36"><svg x="596" y="80" width="52" height="52" viewBox="0 0 100 100"><g fill="currentColor"><g transform="translate(50 52) scale(.66) translate(-50 -50)"><ellipse cx="50" cy="70" rx="25" ry="21"/><ellipse cx="19" cy="45" rx="12" ry="14"/><ellipse cx="37" cy="21" rx="12" ry="14"/><ellipse cx="63" cy="21" rx="12" ry="14"/><ellipse cx="81" cy="45" rx="12" ry="14"/></g></g></svg></g>
<g color="#FF6F61"><svg x="652" y="80" width="52" height="52" viewBox="0 0 100 100"><g fill="currentColor"><g transform="translate(50 52) scale(.66) translate(-50 -50)"><ellipse cx="50" cy="70" rx="25" ry="21"/><ellipse cx="19" cy="45" rx="12" ry="14"/><ellipse cx="37" cy="21" rx="12" ry="14"/><ellipse cx="63" cy="21" rx="12" ry="14"/><ellipse cx="81" cy="45" rx="12" ry="14"/></g></g></svg></g>
<g color="#1F3B36"><svg x="639" y="140" width="22" height="22" viewBox="0 0 100 100"><g fill="currentColor"><g transform="translate(50 52) scale(.66) translate(-50 -50)"><ellipse cx="50" cy="70" rx="25" ry="21"/><ellipse cx="19" cy="45" rx="12" ry="14"/><ellipse cx="37" cy="21" rx="12" ry="14"/><ellipse cx="63" cy="21" rx="12" ry="14"/><ellipse cx="81" cy="45" rx="12" ry="14"/></g></g></svg></g>
<text x="650" y="182" text-anchor="middle" font-family="Verdana,sans-serif" font-size="13" font-weight="bold" fill="#1F3B36">Puppy</text>
<text x="650" y="197" text-anchor="middle" font-family="Verdana,sans-serif" font-size="11" fill="#5E7B75">level 12</text>
<rect x="26" y="216" width="128" height="136" rx="16" fill="#fff"/>
<g color="#1F3B36"><svg x="36" y="230" width="52" height="52" viewBox="0 0 100 100"><g fill="currentColor"><ellipse cx="50" cy="66" rx="28" ry="22"/><ellipse cx="19" cy="38" rx="13" ry="15"/><ellipse cx="41" cy="17" rx="12" ry="14"/><ellipse cx="66" cy="17" rx="12" ry="14"/><ellipse cx="86" cy="39" rx="11" ry="14"/><circle cx="12" cy="76" r="5"/><circle cx="87" cy="72" r="4"/><circle cx="52" cy="95" r="3.5"/></g></svg></g>
<g color="#FF6F61"><svg x="92" y="230" width="52" height="52" viewBox="0 0 100 100"><g fill="currentColor"><ellipse cx="50" cy="66" rx="28" ry="22"/><ellipse cx="19" cy="38" rx="13" ry="15"/><ellipse cx="41" cy="17" rx="12" ry="14"/><ellipse cx="66" cy="17" rx="12" ry="14"/><ellipse cx="86" cy="39" rx="11" ry="14"/><circle cx="12" cy="76" r="5"/><circle cx="87" cy="72" r="4"/><circle cx="52" cy="95" r="3.5"/></g></svg></g>
<g color="#1F3B36"><svg x="79" y="290" width="22" height="22" viewBox="0 0 100 100"><g fill="currentColor"><ellipse cx="50" cy="66" rx="28" ry="22"/><ellipse cx="19" cy="38" rx="13" ry="15"/><ellipse cx="41" cy="17" rx="12" ry="14"/><ellipse cx="66" cy="17" rx="12" ry="14"/><ellipse cx="86" cy="39" rx="11" ry="14"/><circle cx="12" cy="76" r="5"/><circle cx="87" cy="72" r="4"/><circle cx="52" cy="95" r="3.5"/></g></svg></g>
<text x="90" y="332" text-anchor="middle" font-family="Verdana,sans-serif" font-size="13" font-weight="bold" fill="#1F3B36">Muddy</text>
<text x="90" y="347" text-anchor="middle" font-family="Verdana,sans-serif" font-size="11" fill="#5E7B75">level 17</text>
<rect x="166" y="216" width="128" height="136" rx="16" fill="#fff"/>
<g color="#1F3B36"><svg x="176" y="230" width="52" height="52" viewBox="0 0 100 100"><g fill="currentColor"><path d="M50,92 C25,77 20,59 31,51 C40,45 47,52 50,58 C53,52 60,45 69,51 C80,59 75,77 50,92 Z"/><ellipse cx="17" cy="40" rx="11" ry="13"/><ellipse cx="38" cy="19" rx="11" ry="13"/><ellipse cx="62" cy="19" rx="11" ry="13"/><ellipse cx="83" cy="40" rx="11" ry="13"/></g></svg></g>
<g color="#FF6F61"><svg x="232" y="230" width="52" height="52" viewBox="0 0 100 100"><g fill="currentColor"><path d="M50,92 C25,77 20,59 31,51 C40,45 47,52 50,58 C53,52 60,45 69,51 C80,59 75,77 50,92 Z"/><ellipse cx="17" cy="40" rx="11" ry="13"/><ellipse cx="38" cy="19" rx="11" ry="13"/><ellipse cx="62" cy="19" rx="11" ry="13"/><ellipse cx="83" cy="40" rx="11" ry="13"/></g></svg></g>
<g color="#1F3B36"><svg x="219" y="290" width="22" height="22" viewBox="0 0 100 100"><g fill="currentColor"><path d="M50,92 C25,77 20,59 31,51 C40,45 47,52 50,58 C53,52 60,45 69,51 C80,59 75,77 50,92 Z"/><ellipse cx="17" cy="40" rx="11" ry="13"/><ellipse cx="38" cy="19" rx="11" ry="13"/><ellipse cx="62" cy="19" rx="11" ry="13"/><ellipse cx="83" cy="40" rx="11" ry="13"/></g></svg></g>
<text x="230" y="332" text-anchor="middle" font-family="Verdana,sans-serif" font-size="13" font-weight="bold" fill="#1F3B36">Heart</text>
<text x="230" y="347" text-anchor="middle" font-family="Verdana,sans-serif" font-size="11" fill="#5E7B75">level 24</text>
<rect x="306" y="216" width="128" height="136" rx="16" fill="#fff"/>
<g color="#1F3B36"><svg x="316" y="230" width="52" height="52" viewBox="0 0 100 100"><g fill="currentColor"><rect x="24" y="41" width="52" height="18" rx="9"/><circle cx="26" cy="36" r="14"/><circle cx="26" cy="64" r="14"/><circle cx="74" cy="36" r="14"/><circle cx="74" cy="64" r="14"/></g></svg></g>
<g color="#FF6F61"><svg x="372" y="230" width="52" height="52" viewBox="0 0 100 100"><g fill="currentColor"><rect x="24" y="41" width="52" height="18" rx="9"/><circle cx="26" cy="36" r="14"/><circle cx="26" cy="64" r="14"/><circle cx="74" cy="36" r="14"/><circle cx="74" cy="64" r="14"/></g></svg></g>
<g color="#1F3B36"><svg x="359" y="290" width="22" height="22" viewBox="0 0 100 100"><g fill="currentColor"><rect x="24" y="41" width="52" height="18" rx="9"/><circle cx="26" cy="36" r="14"/><circle cx="26" cy="64" r="14"/><circle cx="74" cy="36" r="14"/><circle cx="74" cy="64" r="14"/></g></svg></g>
<text x="370" y="332" text-anchor="middle" font-family="Verdana,sans-serif" font-size="13" font-weight="bold" fill="#1F3B36">Bone</text>
<text x="370" y="347" text-anchor="middle" font-family="Verdana,sans-serif" font-size="11" fill="#5E7B75">level 33</text>
<rect x="446" y="216" width="128" height="136" rx="16" fill="#fff"/>
<g color="#1F3B36"><svg x="456" y="230" width="52" height="52" viewBox="0 0 100 100"><g fill="currentColor"><circle cx="50" cy="50" r="31" fill="none" stroke="currentColor" stroke-width="10"/><path d="M25,28 Q45,50 25,72" fill="none" stroke="currentColor" stroke-width="8" stroke-linecap="round"/><path d="M75,28 Q55,50 75,72" fill="none" stroke="currentColor" stroke-width="8" stroke-linecap="round"/></g></svg></g>
<g color="#FF6F61"><svg x="512" y="230" width="52" height="52" viewBox="0 0 100 100"><g fill="currentColor"><circle cx="50" cy="50" r="31" fill="none" stroke="currentColor" stroke-width="10"/><path d="M25,28 Q45,50 25,72" fill="none" stroke="currentColor" stroke-width="8" stroke-linecap="round"/><path d="M75,28 Q55,50 75,72" fill="none" stroke="currentColor" stroke-width="8" stroke-linecap="round"/></g></svg></g>
<g color="#1F3B36"><svg x="499" y="290" width="22" height="22" viewBox="0 0 100 100"><g fill="currentColor"><circle cx="50" cy="50" r="31" fill="none" stroke="currentColor" stroke-width="10"/><path d="M25,28 Q45,50 25,72" fill="none" stroke="currentColor" stroke-width="8" stroke-linecap="round"/><path d="M75,28 Q55,50 75,72" fill="none" stroke="currentColor" stroke-width="8" stroke-linecap="round"/></g></svg></g>
<text x="510" y="332" text-anchor="middle" font-family="Verdana,sans-serif" font-size="13" font-weight="bold" fill="#1F3B36">Tennis Ball</text>
<text x="510" y="347" text-anchor="middle" font-family="Verdana,sans-serif" font-size="11" fill="#5E7B75">level 45</text>
<rect x="586" y="216" width="128" height="136" rx="16" fill="#fff"/>
<g color="#1F3B36"><svg x="596" y="230" width="52" height="52" viewBox="0 0 100 100"><g fill="currentColor"><ellipse cx="50" cy="69" rx="25" ry="20" fill="none" stroke="currentColor" stroke-width="9"/><ellipse cx="18" cy="43" rx="10" ry="12" fill="none" stroke="currentColor" stroke-width="8"/><ellipse cx="37" cy="21" rx="10" ry="12" fill="none" stroke="currentColor" stroke-width="8"/><ellipse cx="63" cy="21" rx="10" ry="12" fill="none" stroke="currentColor" stroke-width="8"/><ellipse cx="82" cy="43" rx="10" ry="12" fill="none" stroke="currentColor" stroke-width="8"/></g></svg></g>
<g color="#FF6F61"><svg x="652" y="230" width="52" height="52" viewBox="0 0 100 100"><g fill="currentColor"><ellipse cx="50" cy="69" rx="25" ry="20" fill="none" stroke="currentColor" stroke-width="9"/><ellipse cx="18" cy="43" rx="10" ry="12" fill="none" stroke="currentColor" stroke-width="8"/><ellipse cx="37" cy="21" rx="10" ry="12" fill="none" stroke="currentColor" stroke-width="8"/><ellipse cx="63" cy="21" rx="10" ry="12" fill="none" stroke="currentColor" stroke-width="8"/><ellipse cx="82" cy="43" rx="10" ry="12" fill="none" stroke="currentColor" stroke-width="8"/></g></svg></g>
<g color="#1F3B36"><svg x="639" y="290" width="22" height="22" viewBox="0 0 100 100"><g fill="currentColor"><ellipse cx="50" cy="69" rx="25" ry="20" fill="none" stroke="currentColor" stroke-width="9"/><ellipse cx="18" cy="43" rx="10" ry="12" fill="none" stroke="currentColor" stroke-width="8"/><ellipse cx="37" cy="21" rx="10" ry="12" fill="none" stroke="currentColor" stroke-width="8"/><ellipse cx="63" cy="21" rx="10" ry="12" fill="none" stroke="currentColor" stroke-width="8"/><ellipse cx="82" cy="43" rx="10" ry="12" fill="none" stroke="currentColor" stroke-width="8"/></g></svg></g>
<text x="650" y="332" text-anchor="middle" font-family="Verdana,sans-serif" font-size="13" font-weight="bold" fill="#1F3B36">Outline</text>
<text x="650" y="347" text-anchor="middle" font-family="Verdana,sans-serif" font-size="11" fill="#5E7B75">level 60</text>
</svg>